<svg width="138" height="60" viewBox="0 0 138 60" fill="none" xmlns="http://www.w3.org/2000/svg">
    <g filter="url(#filter0_d_521_109)">
        <path d="M66.2786 6.46807C66.2786 5.87199 66.4734 5.37908 66.8746 4.98934C67.2758 4.59959 67.8261 4.40472 68.5139 4.40472C69.1902 4.40472 69.7404 4.59959 70.1416 4.98934C70.5428 5.37908 70.7491 5.87199 70.7491 6.46807C70.7491 7.07561 70.5428 7.56852 70.1301 7.95826C69.7175 8.348 69.1787 8.54287 68.5024 8.54287C67.8261 8.54287 67.2873 8.348 66.8746 7.95826C66.4849 7.57998 66.2786 7.07561 66.2786 6.46807ZM70.5199 25.2789H66.5193V10.3311H70.5199V25.2789Z" fill="white" />
        <path d="M72.801 17.7019C72.801 15.4093 73.3513 13.5637 74.4402 12.1652C75.5292 10.7667 76.9965 10.0675 78.8535 10.0675C80.4927 10.0675 81.7651 10.6292 82.6821 11.7526L82.8426 10.3426H86.4649V24.786C86.4649 26.0928 86.1669 27.2276 85.5708 28.202C84.9748 29.1649 84.138 29.91 83.0604 30.4144C81.9829 30.9187 80.722 31.1709 79.2776 31.1709C78.1772 31.1709 77.1111 30.9531 76.0794 30.5175C75.0363 30.0819 74.2568 29.5203 73.7181 28.821L75.4834 26.3908C76.4807 27.5028 77.6843 28.0645 79.1057 28.0645C80.1603 28.0645 80.9856 27.7779 81.5817 27.2162C82.1663 26.6545 82.4643 25.8521 82.4643 24.809V24.0065C81.5473 25.0497 80.3322 25.5655 78.8306 25.5655C77.0309 25.5655 75.5865 24.8663 74.4746 23.4563C73.3627 22.0578 72.8125 20.1894 72.8125 17.8738V17.7019H72.801ZM76.7902 17.9885C76.7902 19.3411 77.0653 20.4071 77.604 21.1752C78.1428 21.9432 78.8879 22.3329 79.8393 22.3329C81.0544 22.3329 81.9256 21.8744 82.4529 20.9688V14.6756C81.9141 13.7586 81.0544 13.3115 79.8737 13.3115C78.9108 13.3115 78.1657 13.7013 77.6155 14.4922C77.0653 15.2603 76.7902 16.4409 76.7902 17.9885Z" fill="white" />
        <path d="M92.7697 10.3312L92.8957 12.0621C93.9618 10.7324 95.3947 10.0561 97.1944 10.0561C98.7763 10.0561 99.957 10.5261 100.725 11.4546C101.493 12.3831 101.894 13.7701 101.917 15.6271V25.279H97.928V15.7188C97.928 14.8706 97.7446 14.263 97.3778 13.8733C97.011 13.495 96.392 13.3001 95.5437 13.3001C94.4203 13.3001 93.5835 13.7816 93.0218 14.733V25.2675H89.0327V10.3312H92.7697Z" fill="white" />
        <path d="M104.485 6.46807C104.485 5.87199 104.68 5.37908 105.081 4.98934C105.482 4.59959 106.032 4.40472 106.72 4.40472C107.396 4.40472 107.947 4.59959 108.348 4.98934C108.749 5.37908 108.955 5.87199 108.955 6.46807C108.955 7.07561 108.749 7.56852 108.336 7.95826C107.924 8.348 107.385 8.54287 106.709 8.54287C106.032 8.54287 105.494 8.348 105.081 7.95826C104.691 7.57998 104.485 7.07561 104.485 6.46807ZM108.726 25.2789H104.726V10.3311H108.726V25.2789Z" fill="white" />
        <path d="M116.372 6.66296V10.3311H118.928V13.2542H116.372V20.7166C116.372 21.2668 116.475 21.6681 116.693 21.9088C116.899 22.1495 117.312 22.2641 117.908 22.2641C118.355 22.2641 118.745 22.2297 119.077 22.1724V25.1987C118.298 25.4394 117.484 25.554 116.659 25.554C113.862 25.554 112.429 24.1441 112.383 21.3127V13.2657H110.205V10.3426H112.383V6.67443H116.372V6.66296Z" fill="white" />
        <path d="M127.594 25.554C125.405 25.554 123.617 24.8777 122.241 23.5365C120.866 22.1954 120.178 20.4071 120.178 18.1604V17.7706C120.178 16.269 120.464 14.9278 121.049 13.7471C121.634 12.5664 122.448 11.6494 123.514 11.0075C124.58 10.3655 125.795 10.0446 127.147 10.0446C129.188 10.0446 130.804 10.6865 131.973 11.9818C133.143 13.2657 133.739 15.0998 133.739 17.4611V19.0889H124.224C124.35 20.0632 124.74 20.8427 125.394 21.4388C126.047 22.0234 126.861 22.3214 127.858 22.3214C129.394 22.3214 130.598 21.7598 131.457 20.6478L133.418 22.8488C132.822 23.697 132.008 24.3619 130.987 24.8319C129.979 25.3133 128.844 25.554 127.594 25.554ZM127.147 13.2771C126.356 13.2771 125.714 13.5408 125.222 14.0795C124.729 14.6183 124.419 15.3863 124.27 16.3836H129.818V16.0626C129.795 15.18 129.566 14.4922 129.096 13.9993C128.638 13.5179 127.984 13.2771 127.147 13.2771Z" fill="white" />
        <path opacity="0.5" d="M56.0157 0.35129L43.286 47.8829C43.2212 48.0986 42.9623 48.1634 42.8113 48.0123L34.2888 39.4899L40.6753 15.6701C40.74 15.4544 40.5458 15.2602 40.3301 15.3249L16.5103 21.7114L8.03104 13.2321C7.88001 13.081 7.94474 12.8221 8.1605 12.7574L55.6705 0.00607603C55.8863 -0.0370757 56.0804 0.157107 56.0157 0.35129Z" fill="#00B37E" />
        <path opacity="0.5" d="M34.2885 39.49L31.009 51.7882C30.9442 52.004 30.6853 52.0687 30.5343 51.9177L4.08231 25.4873C3.93128 25.3362 3.99601 25.0773 4.21177 25.0126L16.51 21.7115L34.2885 39.49Z" fill="#00B37E" />
        <path d="M40.6752 15.6699L34.2887 39.4897L16.5103 21.7112L40.33 15.3247C40.5457 15.26 40.7399 15.4542 40.6752 15.6699Z" fill="#00B37E" />
        <path d="M71.622 45.6314C71.622 45.4246 71.576 45.2334 71.4839 45.0576C71.3969 44.8767 71.2153 44.7139 70.939 44.5691C70.6678 44.4192 70.2585 44.29 69.711 44.1814C69.2505 44.0832 68.8335 43.9669 68.46 43.8325C68.0916 43.6981 67.777 43.5353 67.516 43.344C67.2602 43.1527 67.0632 42.9279 66.9251 42.6694C66.7869 42.411 66.7179 42.1086 66.7179 41.7622C66.7179 41.4314 66.7895 41.1187 66.9328 40.824C67.0811 40.5294 67.2884 40.2683 67.5544 40.0409C67.8256 39.8134 68.1505 39.6351 68.5291 39.5059C68.9077 39.3766 69.3298 39.312 69.7954 39.312C70.4606 39.312 71.0285 39.4309 71.4992 39.6687C71.97 39.9065 72.3307 40.2244 72.5814 40.6224C72.8321 41.0153 72.9574 41.4521 72.9574 41.9328H71.5376C71.5376 41.7002 71.4685 41.4753 71.3304 41.2582C71.1974 41.0359 71.0004 40.8524 70.7394 40.7077C70.4836 40.563 70.1689 40.4906 69.7954 40.4906C69.4015 40.4906 69.0817 40.5526 68.8361 40.6767C68.5956 40.7956 68.4191 40.9481 68.3065 41.1342C68.1991 41.3203 68.1454 41.5167 68.1454 41.7235C68.1454 41.8785 68.171 42.0181 68.2221 42.1422C68.2784 42.2611 68.3756 42.3722 68.5138 42.4756C68.6519 42.5738 68.8463 42.6668 69.097 42.7547C69.3477 42.8426 69.6675 42.9305 70.0564 43.0183C70.7369 43.1734 71.2971 43.3595 71.7372 43.5766C72.1772 43.7937 72.5046 44.0599 72.7195 44.3753C72.9344 44.6906 73.0419 45.0731 73.0419 45.5228C73.0419 45.8898 72.9651 46.2258 72.8116 46.5308C72.6632 46.8358 72.4458 47.0994 72.1593 47.3217C71.8779 47.5388 71.5402 47.7094 71.1462 47.8335C70.7573 47.9524 70.3199 48.0118 69.8338 48.0118C69.1022 48.0118 68.4831 47.88 67.9765 47.6164C67.47 47.3527 67.0863 47.0116 66.8253 46.5929C66.5644 46.1742 66.4339 45.7322 66.4339 45.267H67.8614C67.8819 45.6598 67.9944 45.9726 68.1991 46.2052C68.4038 46.4326 68.6545 46.5954 68.9512 46.6937C69.248 46.7867 69.5422 46.8332 69.8338 46.8332C70.2227 46.8332 70.5476 46.7815 70.8085 46.6782C71.0746 46.5748 71.2767 46.4326 71.4148 46.2517C71.553 46.0708 71.622 45.864 71.622 45.6314Z" fill="white" />
        <path d="M76.3267 35.9468V47.8567H74.9068V35.9468H76.3267ZM75.989 43.344L75.398 43.3207C75.4031 42.747 75.4876 42.2171 75.6513 41.7312C75.815 41.2401 76.0453 40.8137 76.342 40.4518C76.6388 40.09 76.9918 39.8108 77.4011 39.6144C77.8156 39.4128 78.2735 39.312 78.7749 39.312C79.1842 39.312 79.5526 39.3689 79.8801 39.4826C80.2075 39.5911 80.4864 39.7669 80.7166 40.0099C80.952 40.2528 81.1311 40.5681 81.2539 40.9558C81.3767 41.3383 81.4381 41.8062 81.4381 42.3593V47.8567H80.0105V42.3438C80.0105 41.9044 79.9466 41.5529 79.8187 41.2892C79.6908 41.0204 79.504 40.8266 79.2584 40.7077C79.0128 40.5836 78.711 40.5216 78.3528 40.5216C77.9998 40.5216 77.6774 40.5966 77.3858 40.7465C77.0993 40.8964 76.8511 41.1031 76.6413 41.3668C76.4367 41.6304 76.2755 41.9328 76.1578 42.274C76.0453 42.61 75.989 42.9667 75.989 43.344Z" fill="white" />
        <path d="M83.1879 43.755V43.5766C83.1879 42.9718 83.2749 42.411 83.4488 41.894C83.6228 41.3719 83.8735 40.9196 84.201 40.5371C84.5284 40.1494 84.925 39.8496 85.3906 39.6377C85.8562 39.4206 86.378 39.312 86.9562 39.312C87.5395 39.312 88.0639 39.4206 88.5295 39.6377C89.0002 39.8496 89.3993 40.1494 89.7268 40.5371C90.0594 40.9196 90.3126 41.3719 90.4866 41.894C90.6606 42.411 90.7475 42.9718 90.7475 43.5766V43.755C90.7475 44.3598 90.6606 44.9206 90.4866 45.4375C90.3126 45.9545 90.0594 46.4068 89.7268 46.7945C89.3993 47.177 89.0028 47.4768 88.5372 47.6939C88.0767 47.9058 87.5548 48.0118 86.9716 48.0118C86.3883 48.0118 85.8638 47.9058 85.3982 47.6939C84.9326 47.4768 84.5335 47.177 84.201 46.7945C83.8735 46.4068 83.6228 45.9545 83.4488 45.4375C83.2749 44.9206 83.1879 44.3598 83.1879 43.755ZM84.6077 43.5766V43.755C84.6077 44.1737 84.6563 44.5691 84.7535 44.9413C84.8508 45.3083 84.9966 45.634 85.191 45.9183C85.3906 46.2026 85.6387 46.4274 85.9355 46.5929C86.2322 46.7531 86.5776 46.8332 86.9716 46.8332C87.3604 46.8332 87.7007 46.7531 87.9923 46.5929C88.2891 46.4274 88.5346 46.2026 88.7291 45.9183C88.9235 45.634 89.0693 45.3083 89.1665 44.9413C89.2689 44.5691 89.32 44.1737 89.32 43.755V43.5766C89.32 43.1631 89.2689 42.7728 89.1665 42.4058C89.0693 42.0336 88.9209 41.7054 88.7214 41.4211C88.527 41.1316 88.2814 40.9041 87.9846 40.7387C87.693 40.5733 87.3502 40.4906 86.9562 40.4906C86.5673 40.4906 86.2245 40.5733 85.9278 40.7387C85.6361 40.9041 85.3906 41.1316 85.191 41.4211C84.9966 41.7054 84.8508 42.0336 84.7535 42.4058C84.6563 42.7728 84.6077 43.1631 84.6077 43.5766Z" fill="white" />
        <path d="M93.9479 41.0799V51.0823H92.5204V39.4671H93.8251L93.9479 41.0799ZM99.5428 43.5921V43.755C99.5428 44.3649 99.4712 44.931 99.3279 45.453C99.1847 45.97 98.9749 46.4197 98.6986 46.8022C98.4274 47.1847 98.0923 47.482 97.6932 47.6939C97.2941 47.9058 96.8362 48.0118 96.3194 48.0118C95.7924 48.0118 95.3268 47.9239 94.9226 47.7482C94.5184 47.5724 94.1756 47.3166 93.8942 46.9806C93.6128 46.6446 93.3877 46.2414 93.2188 45.771C93.0551 45.3006 92.9425 44.7707 92.8811 44.1814V43.313C92.9425 42.6927 93.0576 42.137 93.2265 41.6459C93.3953 41.1548 93.6179 40.7361 93.8942 40.3898C94.1756 40.0383 94.5158 39.7721 94.9149 39.5911C95.314 39.4051 95.7745 39.312 96.2964 39.312C96.8183 39.312 97.2813 39.4154 97.6855 39.6222C98.0897 39.8238 98.43 40.1132 98.7063 40.4906C98.9826 40.8679 99.1898 41.3203 99.3279 41.8475C99.4712 42.3696 99.5428 42.9511 99.5428 43.5921ZM98.1153 43.755V43.5921C98.1153 43.1734 98.0718 42.7806 97.9848 42.4135C97.8979 42.0414 97.7623 41.7157 97.5781 41.4366C97.399 41.1523 97.1687 40.93 96.8873 40.7697C96.6059 40.6043 96.2708 40.5216 95.8819 40.5216C95.5238 40.5216 95.2117 40.5836 94.9456 40.7077C94.6847 40.8318 94.4621 40.9998 94.2779 41.2117C94.0937 41.4185 93.9428 41.6563 93.8251 41.9251C93.7125 42.1887 93.6281 42.4627 93.5718 42.747V44.7552C93.6742 45.117 93.8174 45.4582 94.0016 45.7787C94.1858 46.094 94.4314 46.3499 94.7384 46.5463C95.0454 46.7376 95.4317 46.8332 95.8973 46.8332C96.281 46.8332 96.6111 46.7531 96.8873 46.5929C97.1687 46.4274 97.399 46.2026 97.5781 45.9183C97.7623 45.634 97.8979 45.3083 97.9848 44.9413C98.0718 44.5691 98.1153 44.1737 98.1153 43.755Z" fill="white" />
    </g>
    <defs>
        <filter id="filter0_d_521_109" x="0" y="0" width="137.739" height="60" filterUnits="userSpaceOnUse" color-interpolation-filters="sRGB">
            <feFlood flood-opacity="0" result="BackgroundImageFix" />
            <feColorMatrix in="SourceAlpha" type="matrix" values="0 0 0 0 0 0 0 0 0 0 0 0 0 0 0 0 0 0 127 0" result="hardAlpha" />
            <feOffset dy="4" />
            <feGaussianBlur stdDeviation="2" />
            <feComposite in2="hardAlpha" operator="out" />
            <feColorMatrix type="matrix" values="0 0 0 0 0 0 0 0 0 0 0 0 0 0 0 0 0 0 0.25 0" />
            <feBlend mode="normal" in2="BackgroundImageFix" result="effect1_dropShadow_521_109" />
            <feBlend mode="normal" in="SourceGraphic" in2="effect1_dropShadow_521_109" result="shape" />
        </filter>
    </defs>
</svg>
    